<svg width="73" height="29" viewBox="0 0 73 29" fill="none" xmlns="http://www.w3.org/2000/svg">
<path d="M7.92328 28.4029V7.86145H10.1626V28.4029H7.92328Z" fill="#FAF9F6"/>
<path fill-rule="evenodd" clip-rule="evenodd" d="M10.1419 3.16992H7.92334V5.38878H7.92331V6.95025L9.03257 5.84079L10.1418 6.95025V5.38886H10.1419V3.16992Z" fill="#FAF9F6"/>
<path d="M22.1853 28.4029V7.86145H24.4246V28.4029H22.1853Z" fill="#FAF9F6"/>
<path fill-rule="evenodd" clip-rule="evenodd" d="M24.4038 3.16992H22.1852V5.38886H22.1853V6.95025L23.2945 5.84079L24.4038 6.95025V5.38878H24.4038V3.16992Z" fill="#FAF9F6"/>
<path d="M60.2171 28.4029V7.86145H62.4564V28.4029H60.2171Z" fill="#FAF9F6"/>
<path fill-rule="evenodd" clip-rule="evenodd" d="M62.4356 3.16992H60.2171V5.38878H60.2171V6.95025L61.3263 5.84079L62.4356 6.95025V5.38886H62.4356V3.16992Z" fill="#FAF9F6"/>
<path d="M11.1126 28.4029V0H13.3099V8.91822H13.4794C14.0287 8.11512 14.4518 7.73523 15.4651 7.73523C16.9436 7.73523 17.6203 8.49625 17.6203 11.0738V25.6558C17.6203 27.9376 16.6479 28.5304 15.381 28.5304C14.536 28.5304 13.8592 28.2346 13.352 27.1358H13.1825L13.1404 28.4042H11.1114L11.1126 28.4029ZM15.381 10.9043C15.381 10.1433 15.0012 9.72132 14.4085 9.72132C13.6897 9.72132 13.4794 10.3128 13.3099 11.5812V25.0222C13.4794 26.0369 13.7751 26.5864 14.4506 26.5864C14.9579 26.5864 15.3797 26.2485 15.3797 25.3601V10.9055L15.381 10.9043Z" fill="#FAF9F6"/>
<path d="M18.7623 28.4029V0H21.0016V28.4029H18.7623Z" fill="#FAF9F6"/>
<path d="M31.9448 25.3168C31.9448 27.5145 30.9303 28.5292 28.733 28.5292C26.5357 28.5292 25.5212 27.5145 25.5212 25.3168V10.9885C25.5212 8.79078 26.5357 7.73401 28.733 7.73401C30.9303 7.73401 31.9448 8.79078 31.9448 10.9885V25.3168ZM29.7475 10.9897C29.7475 10.1866 29.4097 9.76341 28.733 9.76341C28.0562 9.76341 27.7185 10.1866 27.7185 10.9897V25.318C27.7185 26.1211 28.0562 26.501 28.733 26.501C29.4097 26.501 29.7475 26.1211 29.7475 25.318V10.9897Z" fill="#FAF9F6"/>
<path d="M41.4948 28.4029V10.8202C41.4948 10.0591 41.157 9.72132 40.5656 9.72132C39.9743 9.72132 39.7206 10.0591 39.5091 10.7781V28.4029H37.3118V10.8202C37.3118 10.0591 37.0161 9.72132 36.4247 9.72132C35.7912 9.72132 35.5376 10.1012 35.3261 10.7781V28.4029H33.0867V7.86145H35.1999L35.2419 9.1719H35.4114C35.8766 8.1572 36.4259 7.73523 37.2289 7.73523C38.2855 7.73523 39.0463 8.32673 39.342 9.34142C39.8493 8.20051 40.6102 7.73523 41.4973 7.73523C42.8075 7.73523 43.7787 8.70786 43.7787 10.3982V28.4029H41.4973H41.4948Z" fill="#FAF9F6"/>
<path d="M49.1853 28.403L49.1432 27.3462H48.9737C48.636 27.9377 48.1708 28.5292 46.8606 28.5292C45.2547 28.5292 44.7053 27.5999 44.7053 26.1199V19.9488C44.7053 18.0048 45.3388 17.3712 47.3258 16.7364C48.3823 16.3986 49.0158 16.187 49.0158 15.468V10.5232C49.0158 9.97379 48.7201 9.72011 48.0433 9.72011C47.3666 9.72011 46.9868 10.0159 46.9868 10.6074V14.4954H44.8736V10.3537C44.8736 8.57796 46.0997 7.73279 48.2116 7.73279C50.3235 7.73279 51.2539 8.53589 51.2539 10.1842V28.4005H49.1828L49.1853 28.403ZM49.0591 17.5828C48.7213 17.8785 48.3836 17.9206 47.9184 18.0901C47.1154 18.3859 46.9459 18.767 46.9459 19.5268V25.5705C46.9459 26.2894 47.2837 26.5852 47.8751 26.5852C48.5085 26.5852 48.8475 26.2894 49.0578 25.74V17.5828H49.0591Z" fill="#FAF9F6"/>
<path d="M56.6655 28.4029V10.8202C56.6655 10.0591 56.3277 9.72132 55.693 9.72132C55.1016 9.72132 54.848 10.0591 54.5944 10.7781V28.4029H52.355V7.86145H54.4682L54.5102 9.1719H54.6797C55.1449 8.1572 55.8625 7.73523 56.835 7.73523C58.1872 7.73523 58.9481 8.62247 58.9481 10.3982V28.4029H56.6667H56.6655Z" fill="#FAF9F6"/>
<path d="M67.736 28.403L67.694 27.3462H67.5245C67.1867 27.9377 66.7215 28.5292 65.4113 28.5292C63.8054 28.5292 63.2561 27.5999 63.2561 26.1199V19.9488C63.2561 18.0048 63.8896 17.3712 65.8765 16.7364C66.9331 16.3986 67.5665 16.187 67.5665 15.468V10.5232C67.5665 9.97379 67.2708 9.72011 66.5941 9.72011C65.9173 9.72011 65.5375 10.0159 65.5375 10.6074V14.4954H63.4244V10.3537C63.4244 8.57796 64.6504 7.73279 66.7624 7.73279C68.8743 7.73279 69.8047 8.53589 69.8047 10.1842V28.4005H67.7336L67.736 28.403ZM67.6086 17.5828C67.2708 17.8785 66.9331 17.9206 66.4679 18.0901C65.6649 18.3859 65.4955 18.767 65.4955 19.5268V25.5705C65.4955 26.2894 65.8332 26.5852 66.4246 26.5852C67.058 26.5852 67.397 26.2894 67.6074 25.74V17.5828H67.6086Z" fill="#FAF9F6"/>
<path fill-rule="evenodd" clip-rule="evenodd" d="M73 24.8309H70.7815V27.0499H73V24.8309ZM70.7815 27.05V28.6115L71.8907 27.502L73 28.6115V27.05H70.7815Z" fill="#FAF9F6"/>
<path d="M0 28.403V0.337891H3.88731C5.87304 0.337891 6.59186 1.39466 6.59186 3.25453V11.2855C6.59186 12.5539 6.16873 13.3149 5.19752 13.5253V13.6948C6.16997 13.8643 6.80342 14.4138 6.80342 16.0199V25.9529C6.80342 27.5591 6.0846 28.4042 4.18301 28.4042H0V28.403ZM4.39457 3.76188C4.39457 2.83257 4.14094 2.36729 3.42212 2.36729H2.32348V12.7222H3.42212C4.01351 12.7222 4.39457 12.4264 4.39457 11.5392V3.76188ZM4.43664 15.8504C4.43664 15.0473 4.14094 14.7095 3.38006 14.7095H2.32348V26.3748H3.38006C4.14094 26.3748 4.43664 25.9949 4.43664 25.1918V15.8517V15.8504Z" fill="#FAF9F6"/>
</svg>
